<svg width="364" height="216" viewBox="0 0 364 216" fill="none" xmlns="http://www.w3.org/2000/svg">
<path d="M46.3424 213.603C165.09 188 159.077 30.6154 46.3424 2H183.127L226.718 115.708L276.322 2H328.931L362 213.603H307.136L292.856 93.8704L240.998 213.603H218.451L169.599 93.8704L149.307 213.603H46.3424Z" fill="white"/>
<path d="M2 47.9352C101.958 44.17 95.1942 178.21 2 168.421V47.9352Z" fill="white"/>
<path d="M46.3424 213.603C165.09 188 159.077 30.6154 46.3424 2H183.127L226.718 115.708L276.322 2H328.931L362 213.603H307.136L292.856 93.8704L240.998 213.603H218.451L169.599 93.8704L149.307 213.603H46.3424Z" stroke="white" stroke-width="3"/>
<path d="M2 47.9352C101.958 44.17 95.1942 178.21 2 168.421V47.9352Z" stroke="white" stroke-width="3"/>
</svg>
