<svg width="512" height="512" viewBox="0 0 512 512" fill="none" xmlns="http://www.w3.org/2000/svg">
<rect width="512" height="512" fill="#003C8F"/>
<path d="M120.342 361.603C239.09 336 233.077 178.615 120.342 150H257.127L300.718 263.708L350.322 150H402.931L436 361.603H381.136L366.856 241.87L314.998 361.603H292.451L243.599 241.87L223.307 361.603H120.342Z" fill="white"/>
<path d="M76 195.935C175.958 192.17 169.194 326.21 76 316.421V195.935Z" fill="white"/>
<path d="M120.342 361.603C239.09 336 233.077 178.615 120.342 150H257.127L300.718 263.708L350.322 150H402.931L436 361.603H381.136L366.856 241.87L314.998 361.603H292.451L243.599 241.87L223.307 361.603H120.342Z" stroke="white" stroke-width="3"/>
<path d="M76 195.935C175.958 192.17 169.194 326.21 76 316.421V195.935Z" stroke="white" stroke-width="3"/>
</svg>
