<svg width="22" height="28" viewBox="0 0 22 28" fill="none" xmlns="http://www.w3.org/2000/svg">
<path d="M3.18499 4.3817L4.34289 3.70999C5.43 3.08052 6.80899 3.40971 7.56896 4.47786L9.07877 6.60667C9.73613 7.53357 9.76071 8.78874 9.13676 9.70956L7.40176 12.2721C7.80959 13.488 8.49781 14.6216 9.46411 15.6736C10.3869 16.6941 11.505 17.5191 12.7523 18.0996L15.1922 16.6416C16.1181 16.09 17.289 16.2344 18.0977 16.9995L19.9849 18.7809C20.9266 19.6708 21.116 21.1409 20.4277 22.2215L19.6897 23.3797C18.9553 24.5322 17.6847 25.1716 16.3551 25.0561C13.2151 24.7849 9.91597 22.6573 6.45662 18.6734C2.99227 14.6833 1.27565 11.0275 1.30893 7.71046C1.32261 6.31464 2.03558 5.0479 3.18499 4.3817Z" fill="#317BE1"/>
</svg>
