<svg width="20" height="20" viewBox="0 0 20 20" fill="none" xmlns="http://www.w3.org/2000/svg">
<path d="M9.86035 6.67637L6.03613 11.9615C6.01748 11.9872 6.00631 12.0176 6.00386 12.0492C6.0014 12.0808 6.00776 12.1126 6.02222 12.1408C6.03668 12.1691 6.05868 12.1928 6.08579 12.2093C6.11289 12.2258 6.14404 12.2345 6.17578 12.2344H7.1834C7.40254 12.2344 7.61094 12.1291 7.73984 11.9508L10 8.82695L12.2602 11.9508C12.3891 12.1291 12.5953 12.2344 12.8166 12.2344H13.8242C13.9639 12.2344 14.0455 12.0754 13.9639 11.9615L10.1396 6.67637C10.0709 6.58184 9.9291 6.58184 9.86035 6.67637Z" fill="#1565C0"/>
<path d="M0.375 10C0.375 15.3152 4.68477 19.625 10 19.625C15.3152 19.625 19.625 15.3152 19.625 10C19.625 4.68477 15.3152 0.375 10 0.375C4.68477 0.375 0.375 4.68477 0.375 10ZM17.9922 10C17.9922 14.4129 14.4129 17.9922 10 17.9922C5.58711 17.9922 2.00781 14.4129 2.00781 10C2.00781 5.58711 5.58711 2.00781 10 2.00781C14.4129 2.00781 17.9922 5.58711 17.9922 10Z" fill="#1565C0"/>
</svg>
