<svg width="20" height="20" viewBox="0 0 20 20" fill="none" xmlns="http://www.w3.org/2000/svg">
<path d="M9.76465 12.9486L13.5889 7.66348C13.6075 7.63779 13.6187 7.60745 13.6211 7.5758C13.6236 7.54415 13.6172 7.51245 13.6028 7.48419C13.5883 7.45594 13.5663 7.43224 13.5392 7.41572C13.5121 7.39921 13.481 7.39052 13.4492 7.39063H12.4416C12.2225 7.39063 12.0141 7.4959 11.8852 7.67422L9.625 10.798L7.36484 7.67422C7.23594 7.4959 7.02969 7.39063 6.8084 7.39063H5.80078C5.66113 7.39063 5.57949 7.54961 5.66113 7.66348L9.48535 12.9486C9.5541 13.0432 9.6959 13.0432 9.76465 12.9486Z" fill="black"/>
<path d="M19.25 9.625C19.25 4.30977 14.9402 0 9.625 0C4.30977 0 0 4.30977 0 9.625C0 14.9402 4.30977 19.25 9.625 19.25C14.9402 19.25 19.25 14.9402 19.25 9.625ZM1.63281 9.625C1.63281 5.21211 5.21211 1.63281 9.625 1.63281C14.0379 1.63281 17.6172 5.21211 17.6172 9.625C17.6172 14.0379 14.0379 17.6172 9.625 17.6172C5.21211 17.6172 1.63281 14.0379 1.63281 9.625Z" fill="black"/>
</svg>
