<svg width="120" height="120" viewBox="0 0 120 120" fill="none" xmlns="http://www.w3.org/2000/svg">
<circle cx="60" cy="60" r="60" fill="#9DC4F9"/>
<circle cx="60" cy="60" r="46.5" fill="#9DC4F9" stroke="white" stroke-width="3"/>
<path d="M61.8 30.3C61.8 29.5839 61.5155 28.8972 61.0092 28.3908C60.5028 27.8845 59.8161 27.6 59.1 27.6C58.3839 27.6 57.6972 27.8845 57.1908 28.3908C56.6845 28.8972 56.4 29.5839 56.4 30.3V47.4C56.4 47.8774 56.2104 48.3352 55.8728 48.6728C55.5352 49.0104 55.0774 49.2 54.6 49.2C54.1226 49.2 53.6648 49.0104 53.3272 48.6728C52.9896 48.3352 52.8 47.8774 52.8 47.4V30.3C52.8 29.9454 52.7302 29.5943 52.5945 29.2668C52.4588 28.9392 52.2599 28.6415 52.0092 28.3908C51.7585 28.1401 51.4608 27.9412 51.1332 27.8055C50.8057 27.6698 50.4546 27.6 50.1 27.6C49.7454 27.6 49.3943 27.6698 49.0667 27.8055C48.7392 27.9412 48.4415 28.1401 48.1908 28.3908C47.9401 28.6415 47.7412 28.9392 47.6055 29.2668C47.4698 29.5943 47.4 29.9454 47.4 30.3V47.4C47.4 47.8774 47.2104 48.3352 46.8728 48.6728C46.5352 49.0104 46.0774 49.2 45.6 49.2C45.1226 49.2 44.6648 49.0104 44.3272 48.6728C43.9896 48.3352 43.8 47.8774 43.8 47.4V30.3C43.8 29.5839 43.5155 28.8972 43.0092 28.3908C42.5028 27.8845 41.8161 27.6 41.1 27.6C40.3839 27.6 39.6972 27.8845 39.1908 28.3908C38.6845 28.8972 38.4 29.5839 38.4 30.3V46.5C38.4 46.7286 38.4378 46.9482 38.4918 47.1606C38.4378 47.5332 38.4 47.9112 38.4 48.3C38.4 52.4688 41.55 59.0226 45.6 59.8956V87.9C45.6 89.0935 46.0741 90.2381 46.918 91.082C47.7619 91.9259 48.9065 92.4 50.1 92.4C51.2935 92.4 52.4381 91.9259 53.282 91.082C54.1259 90.2381 54.6 89.0935 54.6 87.9V59.8956C58.65 59.0226 61.8 52.4688 61.8 48.3C61.8 47.9112 61.7622 47.5332 61.7082 47.1606C61.7622 46.9482 61.8 46.7286 61.8 46.5V30.3ZM77.1 27.6C76.9128 27.6 76.7328 27.6342 76.5492 27.6558C76.434 27.6378 76.3206 27.6 76.2 27.6C72.2238 27.6 67.2 37.4586 67.2 47.4C67.2 55.7844 69.495 62.808 72.6 64.8096V87.9C72.6 89.0935 73.0741 90.2381 73.918 91.082C74.7619 91.9259 75.9065 92.4 77.1 92.4C78.2935 92.4 79.4381 91.9259 80.282 91.082C81.1259 90.2381 81.6 89.0935 81.6 87.9V32.1C81.6 30.9065 81.1259 29.7619 80.282 28.918C79.4381 28.0741 78.2935 27.6 77.1 27.6Z" fill="white"/>
</svg>
