<svg width="24" height="24" viewBox="0 0 24 24" fill="none" xmlns="http://www.w3.org/2000/svg">
<path d="M12 4.80005C10.7484 4.80164 9.5486 5.29951 8.66362 6.18449C7.77864 7.06947 7.28076 8.2693 7.27917 9.52085H9.67917C9.67917 8.24045 10.7208 7.20005 12 7.20005C13.2792 7.20005 14.3208 8.24045 14.3208 9.52085C14.3208 10.2384 13.7436 10.7592 12.8616 11.472C12.5734 11.6978 12.2967 11.9377 12.0324 12.1908C10.8348 13.3872 10.8 14.658 10.8 14.7996V15.6H13.2L13.1988 14.8404C13.2 14.8212 13.2384 14.3772 13.728 13.8888C13.908 13.7088 14.1348 13.5288 14.37 13.3392C15.3048 12.582 16.7196 11.4384 16.7196 9.52085C16.7186 8.26932 16.2211 7.0693 15.3363 6.18422C14.4514 5.29913 13.2515 4.80132 12 4.80005ZM10.8 16.8H13.2V19.2H10.8V16.8Z" fill="black"/>
<path d="M12 0C5.3832 0 0 5.3832 0 12C0 18.6168 5.3832 24 12 24C18.6168 24 24 18.6168 24 12C24 5.3832 18.6168 0 12 0ZM12 21.6C6.7068 21.6 2.4 17.2932 2.4 12C2.4 6.7068 6.7068 2.4 12 2.4C17.2932 2.4 21.6 6.7068 21.6 12C21.6 17.2932 17.2932 21.6 12 21.6Z" fill="black"/>
</svg>
