<svg width="25" height="24" viewBox="0 0 25 24" fill="none" xmlns="http://www.w3.org/2000/svg">
<path d="M0.34424 21.515H16.4913V22.5693C16.4913 23.1717 16.0072 23.6558 15.4048 23.6558H1.43075C0.828328 23.6558 0.34424 23.1717 0.34424 22.5693V21.515ZM21.3106 24L16.4805 19.1806V19.3635H0.34424V17.212H14.5119L12.3604 15.0605H0.34424C0.34424 11.5751 2.99059 9.49888 6.13178 8.83191L0 2.70013L1.52757 1.18333L13.2533 12.909L15.4048 15.0605L22.8274 22.4832L21.3106 24ZM10.2089 12.909L8.05737 10.7575C6.52981 10.8221 4.27073 11.3599 3.16271 12.909H10.2089ZM24.0108 4.303H18.632V0H16.4805V4.303H11.1017L11.3492 6.4545H21.6334L20.5576 17.1797L22.5262 19.1484L24.0108 4.303Z" fill="black"/>
</svg>
