<svg width="21" height="18" viewBox="0 0 21 18" fill="none" xmlns="http://www.w3.org/2000/svg">
<path d="M0 9L5 13V10H14V8H5V5L0 9Z" fill="black"/>
<path d="M11.001 -0.00100324C9.81852 -0.00428193 8.64715 0.227107 7.55474 0.67976C6.46233 1.13241 5.4706 1.79733 4.63699 2.636L6.05099 4.05C7.37299 2.728 9.13099 1.999 11.001 1.999C12.871 1.999 14.629 2.728 15.951 4.05C17.273 5.372 18.002 7.13 18.002 9C18.002 10.87 17.273 12.628 15.951 13.95C14.629 15.272 12.871 16.001 11.001 16.001C9.13099 16.001 7.37299 15.272 6.05099 13.95L4.63699 15.364C6.33599 17.064 8.59599 18.001 11.001 18.001C13.406 18.001 15.666 17.064 17.365 15.364C19.065 13.665 20.002 11.405 20.002 9C20.002 6.595 19.065 4.335 17.365 2.636C16.5314 1.79733 15.5397 1.13241 14.4472 0.67976C13.3548 0.227107 12.1835 -0.00428193 11.001 -0.00100324V-0.00100324Z" fill="black"/>
</svg>
