<svg width="33" height="24" viewBox="0 0 33 24" fill="none" xmlns="http://www.w3.org/2000/svg">
<path d="M4.36364 22.9091V24H6.54545V22.9091H4.36364ZM15.2727 22.9091V24H17.4545V22.9091H15.2727ZM6.54545 22.9091V21.8182H4.36364V22.9091H6.54545ZM15.2727 21.8182V22.9091H17.4545V21.8182H15.2727ZM10.9091 17.4545C12.0664 17.4545 13.1763 17.9143 13.9946 18.7326C14.813 19.551 15.2727 20.6609 15.2727 21.8182H17.4545C17.4545 20.0822 16.7649 18.4174 15.5374 17.1898C14.3099 15.9623 12.6451 15.2727 10.9091 15.2727V17.4545ZM6.54545 21.8182C6.54545 20.6609 7.00519 19.551 7.82353 18.7326C8.64187 17.9143 9.75178 17.4545 10.9091 17.4545V15.2727C9.17313 15.2727 7.50827 15.9623 6.28076 17.1898C5.05325 18.4174 4.36364 20.0822 4.36364 21.8182H6.54545ZM10.9091 4.36364C9.75178 4.36364 8.64187 4.82338 7.82353 5.64172C7.00519 6.46006 6.54545 7.56996 6.54545 8.72727H8.72727C8.72727 8.14862 8.95714 7.59367 9.36631 7.18449C9.77548 6.77532 10.3304 6.54545 10.9091 6.54545V4.36364ZM15.2727 8.72727C15.2727 7.56996 14.813 6.46006 13.9946 5.64172C13.1763 4.82338 12.0664 4.36364 10.9091 4.36364V6.54545C11.4877 6.54545 12.0427 6.77532 12.4519 7.18449C12.861 7.59367 13.0909 8.14862 13.0909 8.72727H15.2727ZM10.9091 13.0909C12.0664 13.0909 13.1763 12.6312 13.9946 11.8128C14.813 10.9945 15.2727 9.88458 15.2727 8.72727H13.0909C13.0909 9.30593 12.861 9.86088 12.4519 10.2701C12.0427 10.6792 11.4877 10.9091 10.9091 10.9091V13.0909ZM10.9091 10.9091C10.3304 10.9091 9.77548 10.6792 9.36631 10.2701C8.95714 9.86088 8.72727 9.30593 8.72727 8.72727H6.54545C6.54545 9.88458 7.00519 10.9945 7.82353 11.8128C8.64187 12.6312 9.75178 13.0909 10.9091 13.0909V10.9091ZM3.27273 2.18182H29.4545V0H3.27273V2.18182ZM30.5455 3.27273V20.7273H32.7273V3.27273H30.5455ZM29.4545 21.8182H3.27273V24H29.4545V21.8182ZM2.18182 20.7273V3.27273H0V20.7273H2.18182ZM3.27273 21.8182C2.9834 21.8182 2.70592 21.7032 2.50134 21.4987C2.29675 21.2941 2.18182 21.0166 2.18182 20.7273H0C0 21.5953 0.344804 22.4277 0.95856 23.0414C1.57232 23.6552 2.40475 24 3.27273 24V21.8182ZM30.5455 20.7273C30.5455 21.0166 30.4305 21.2941 30.2259 21.4987C30.0214 21.7032 29.7439 21.8182 29.4545 21.8182V24C30.3225 24 31.155 23.6552 31.7687 23.0414C32.3825 22.4277 32.7273 21.5953 32.7273 20.7273H30.5455ZM29.4545 2.18182C29.7439 2.18182 30.0214 2.29675 30.2259 2.50134C30.4305 2.70592 30.5455 2.9834 30.5455 3.27273H32.7273C32.7273 2.40475 32.3825 1.57232 31.7687 0.95856C31.155 0.344804 30.3225 0 29.4545 0V2.18182ZM3.27273 0C2.40475 0 1.57232 0.344804 0.95856 0.95856C0.344804 1.57232 0 2.40475 0 3.27273H2.18182C2.18182 2.9834 2.29675 2.70592 2.50134 2.50134C2.70592 2.29675 2.9834 2.18182 3.27273 2.18182V0ZM19.6364 8.72727H26.1818V6.54545H19.6364V8.72727ZM19.6364 15.2727H26.1818V13.0909H19.6364V15.2727Z" fill="white"/>
</svg>
