<svg width="120" height="120" viewBox="0 0 120 120" fill="none" xmlns="http://www.w3.org/2000/svg">
<circle cx="55.102" cy="55.102" r="55.102" fill="#F3F594" fill-opacity="0.92"/>
<path d="M49.9036 63.0196C55.9464 57.9348 63.6535 55.1265 71.6327 55.1021C87.8962 55.1021 101.397 66.9017 102.866 82.1173C112.491 83.4448 120 91.3092 120 100.961C120 111.557 110.943 120 99.9699 120H46.1249C33.5917 120 23.2653 110.36 23.2653 98.2769C23.2653 87.8755 30.9194 79.2618 41.0524 77.0789C41.917 71.9873 45.2724 66.9135 49.9036 63.0196V63.0196Z" fill="#D5CECE"/>
<ellipse cx="23.7908" cy="27.9179" rx="7.29315" ry="10.0281" transform="rotate(46.5914 23.7908 27.9179)" fill="#D9DD11" fill-opacity="0.92"/>
<ellipse cx="16.139" cy="45.4713" rx="3.762" ry="5.17274" transform="rotate(46.5914 16.139 45.4713)" fill="#D9DD11" fill-opacity="0.92"/>
<ellipse cx="28.8805" cy="45.9963" rx="4.48464" ry="5.17274" transform="rotate(46.5914 28.8805 45.9963)" fill="#D9DD11" fill-opacity="0.92"/>
</svg>
