<svg width="278" height="264" viewBox="0 0 278 264" fill="none" xmlns="http://www.w3.org/2000/svg">
<ellipse cx="139.5" cy="146.5" rx="108.5" ry="117.5" fill="#317BE1" fill-opacity="0.21"/>
<path d="M0 132.918H47.4832H63.7446C72.2762 150.745 71.6818 160.74 63.7446 178.567H0" stroke="#317BE1" stroke-width="2"/>
<path d="M112.523 164.171L139 163.993M137.897 164.012C141.149 166.659 141.799 172.613 139.848 177.244M111.228 171.951H137.896M137.896 171.951H138.547M137.896 171.951C141.029 174.911 139.197 180.552 136.596 181.875H108.626" stroke="#317BE1" stroke-width="2"/>
<path d="M55 179C57.7464 194.06 62.3321 199.997 71.9118 209.433" stroke="#317BE1" stroke-width="2"/>
<path d="M54 132.095C57.2107 117.121 60.6071 110.291 69.6109 101" stroke="#317BE1" stroke-width="2"/>
<path d="M93.6656 101.162C117.732 138.872 118.383 171.29 95.6169 209L72.2036 208.419C94.6799 170.941 93.9797 138.663 70.103 101.162H93.6656Z" fill="white"/>
<path d="M108.626 130.933L139.197 131.624M138.547 131.595C143.751 132.918 143.751 142.18 141.799 144.165M111.228 142.18H139.197C143.1 143.503 142.45 146.811 134.644 148.134M111.878 148.134L135.232 148.028M93.6656 101.162C117.732 138.872 118.383 171.29 95.6169 209L72.2036 208.419C94.6799 170.941 93.9797 138.663 70.103 101.162H93.6656Z" stroke="#317BE1" stroke-width="2"/>
<path d="M215 103C239.067 140.71 239.717 173.128 216.951 210.838" stroke="#317BE1" stroke-width="2"/>
<ellipse cx="185" cy="157" rx="23" ry="55" fill="#317BE1"/>
<ellipse cx="185" cy="157" rx="21" ry="53" fill="white"/>
<rect x="170.697" y="134.779" width="26" height="11" rx="5" transform="rotate(-3.3927 170.697 134.779)" fill="#317BE1"/>
<rect x="171" y="166.539" width="26" height="11" rx="5" transform="rotate(-3.3927 171 166.539)" fill="#317BE1"/>
<line x1="185" y1="103" x2="215" y2="103" stroke="#317BE1" stroke-width="2"/>
<line x1="187" y1="211" x2="217" y2="211" stroke="#317BE1" stroke-width="2"/>
<line x1="229" y1="131" x2="278" y2="131" stroke="#317BE1" stroke-width="2"/>
<line x1="232" y1="176" x2="278" y2="176" stroke="#317BE1" stroke-width="2"/>
<path d="M67.75 33.363C71.25 41.863 79.2651 56.2729 90.25 68.363C101.235 80.4531 102.318 78.1639 98.25 63.363C98.25 63.363 87.75 31.863 80.75 24.863C73.75 17.863 64.25 24.863 67.75 33.363Z" fill="white" stroke="#317BE1" stroke-width="2"/>
<path d="M129.541 12.2822C128.444 21.4089 128.401 37.8979 132.083 53.8127C135.765 69.7275 137.828 68.2588 141.506 53.3563C141.506 53.3563 147.726 20.7402 145.036 11.2132C142.346 1.68622 130.637 3.15544 129.541 12.2822Z" fill="white" stroke="#317BE1" stroke-width="2"/>
<path d="M193.933 27.5718C188.631 35.0815 180.759 49.5702 176.437 65.3232C172.115 81.0763 174.629 80.7641 184.946 69.3987C184.946 69.3987 205.916 43.6546 208.075 33.9935C210.235 24.3324 199.234 20.0621 193.933 27.5718Z" fill="white" stroke="#317BE1" stroke-width="2"/>
<circle cx="105" cy="89" r="8" fill="#317BE1"/>
<path d="M111 89C111 92.3137 108.314 95 105 95C101.686 95 99 92.3137 99 89C99 85.6863 101.686 83 105 83C108.314 83 111 85.6863 111 89Z" fill="white"/>
<circle cx="137" cy="78" r="8" fill="#317BE1"/>
<path d="M143 78C143 81.3137 140.314 84 137 84C133.686 84 131 81.3137 131 78C131 74.6863 133.686 72 137 72C140.314 72 143 74.6863 143 78Z" fill="white"/>
<circle cx="169" cy="89" r="8" fill="#317BE1"/>
<path d="M175 89C175 92.3137 172.314 95 169 95C165.686 95 163 92.3137 163 89C163 85.6863 165.686 83 169 83C172.314 83 175 85.6863 175 89Z" fill="white"/>
</svg>
