<svg width="24" height="20" viewBox="0 0 24 20" fill="none" xmlns="http://www.w3.org/2000/svg">
<path d="M18.5094 7.3913L23.7897 1.41272C23.9026 1.28481 23.9734 1.13061 23.9938 0.967878C24.0143 0.805141 23.9836 0.640484 23.9052 0.492864C23.8269 0.345244 23.7041 0.220664 23.5511 0.133469C23.398 0.0462735 23.2209 8.16335e-06 23.04 0H0.960002C0.705394 0 0.461213 0.0916148 0.281178 0.25469C0.101143 0.417765 0 0.638942 0 0.869565V19.1304C0 19.3611 0.101143 19.5822 0.281178 19.7453C0.461213 19.9084 0.705394 20 0.960002 20C1.21461 20 1.45879 19.9084 1.63883 19.7453C1.81886 19.5822 1.92 19.3611 1.92 19.1304V14.7826H23.04C23.2209 14.7826 23.398 14.7363 23.5511 14.6491C23.7041 14.5619 23.8269 14.4374 23.9052 14.2897C23.9836 14.1421 24.0143 13.9775 23.9938 13.8147C23.9734 13.652 23.9026 13.4978 23.7897 13.3699L18.5094 7.3913ZM1.92 13.0435V1.73913H21.0426L16.5304 6.84815C16.3943 7.00233 16.3201 7.19388 16.3201 7.3913C16.3201 7.58873 16.3943 7.78028 16.5304 7.93446L21.0426 13.0435H1.92Z" fill="black"/>
</svg>
