<svg width="15" height="16" viewBox="0 0 15 16" fill="none" xmlns="http://www.w3.org/2000/svg">
<path d="M13.125 10.9557V7.25719C13.125 4.98629 11.5875 3.08525 8.90625 2.58225V2.07925C8.90625 1.4653 8.27812 0.969696 7.5 0.969696C6.72188 0.969696 6.09375 1.4653 6.09375 2.07925V2.58225C3.40313 3.08525 1.875 4.9789 1.875 7.25719V10.9557L0 12.4351V13.1748H15V12.4351L13.125 10.9557ZM8.4375 10.9557H6.5625V9.4763H8.4375V10.9557ZM8.4375 7.99689H6.5625V5.03807H8.4375V7.99689ZM7.5 15.3939C8.53125 15.3939 9.375 14.7282 9.375 13.9145H5.625C5.625 14.3069 5.82254 14.6832 6.17418 14.9606C6.52581 15.2381 7.00272 15.3939 7.5 15.3939Z" fill="black"/>
<path d="M8.4375 5.03809H6.5625V7.9969H8.4375V5.03809Z" fill="#FAFF00"/>
<path d="M8.4375 9.47629H6.5625V10.9557H8.4375V9.47629Z" fill="#FAFF00"/>
</svg>
