<svg width="19" height="20" viewBox="0 0 19 20" fill="none" xmlns="http://www.w3.org/2000/svg">
<path d="M14.6533 7.3913L18.8335 1.41272C18.9229 1.28481 18.9789 1.13061 18.9951 0.967878C19.0113 0.805141 18.987 0.640484 18.925 0.492864C18.863 0.345244 18.7658 0.220664 18.6446 0.133469C18.5234 0.0462735 18.3832 8.16335e-06 18.24 0H0.760001C0.558437 0 0.365127 0.0916148 0.222599 0.25469C0.0800715 0.417765 0 0.638942 0 0.869565V19.1304C0 19.3611 0.0800715 19.5822 0.222599 19.7453C0.365127 19.9084 0.558437 20 0.760001 20C0.961566 20 1.15488 19.9084 1.2974 19.7453C1.43993 19.5822 1.52 19.3611 1.52 19.1304V14.7826H18.24C18.3832 14.7826 18.5234 14.7363 18.6446 14.6491C18.7658 14.5619 18.863 14.4374 18.925 14.2897C18.987 14.1421 19.0113 13.9775 18.9951 13.8147C18.9789 13.652 18.9229 13.4978 18.8335 13.3699L14.6533 7.3913ZM1.52 13.0435V1.73913H16.6588L13.0866 6.84815C12.9788 7.00233 12.9201 7.19388 12.9201 7.3913C12.9201 7.58873 12.9788 7.78028 13.0866 7.93446L16.6588 13.0435H1.52Z" fill="black"/>
</svg>
