<svg width="24" height="20" viewBox="0 0 24 20" fill="none" xmlns="http://www.w3.org/2000/svg">
<path d="M16.5 5.9375C16.5 5.72201 16.579 5.51535 16.7197 5.36298C16.8603 5.2106 17.0511 5.125 17.25 5.125H20.25C20.4489 5.125 20.6397 5.2106 20.7803 5.36298C20.921 5.51535 21 5.72201 21 5.9375V7.5625C21 7.77799 20.921 7.98465 20.7803 8.13702C20.6397 8.2894 20.4489 8.375 20.25 8.375H17.25C17.0511 8.375 16.8603 8.2894 16.7197 8.13702C16.579 7.98465 16.5 7.77799 16.5 7.5625V5.9375Z" fill="black"/>
<path d="M3 0.25C2.20435 0.25 1.44129 0.59241 0.87868 1.2019C0.316071 1.8114 0 2.63805 0 3.5L0 16.5C0 17.362 0.316071 18.1886 0.87868 18.7981C1.44129 19.4076 2.20435 19.75 3 19.75H21C21.7956 19.75 22.5587 19.4076 23.1213 18.7981C23.6839 18.1886 24 17.362 24 16.5V3.5C24 2.63805 23.6839 1.8114 23.1213 1.2019C22.5587 0.59241 21.7956 0.25 21 0.25H3ZM22.5 3.5V11.625H1.5V3.5C1.5 3.06902 1.65804 2.6557 1.93934 2.35095C2.22064 2.0462 2.60218 1.875 3 1.875H21C21.3978 1.875 21.7794 2.0462 22.0607 2.35095C22.342 2.6557 22.5 3.06902 22.5 3.5ZM21 18.125H3C2.60218 18.125 2.22064 17.9538 1.93934 17.649C1.65804 17.3443 1.5 16.931 1.5 16.5V14.875H22.5V16.5C22.5 16.931 22.342 17.3443 22.0607 17.649C21.7794 17.9538 21.3978 18.125 21 18.125Z" fill="black"/>
</svg>
