<svg width="150" height="150" viewBox="0 0 150 150" fill="none" xmlns="http://www.w3.org/2000/svg">
    <g filter="url(#filter0_d)">
        <circle cx="75" cy="75" r="75" fill="white" />
    </g>
    <circle cx="75" cy="75" r="58.5" fill="white" stroke="#317BE1" stroke-width="3" />
    <path
        d="M49.8375 94.1625V95.1625H50.8375H101.163H102.163V94.1625V89.625C102.163 88.9141 101.75 88.2941 101.326 87.8245C100.873 87.3228 100.247 86.8186 99.5089 86.326C98.0273 85.3369 95.959 84.3055 93.5353 83.3707C88.6874 81.5009 82.2739 79.9625 76 79.9625C69.7261 79.9625 63.3126 81.5009 58.4647 83.3707C56.041 84.3055 53.9727 85.3369 52.4911 86.326C51.7532 86.8186 51.1273 87.3228 50.6741 87.8245C50.25 88.2941 49.8375 88.9141 49.8375 89.625V94.1625ZM76 37C80.1109 37 84.0533 38.633 86.9602 41.5398C89.867 44.4467 91.5 48.3891 91.5 52.5C91.5 56.6109 89.867 60.5533 86.9602 63.4602C84.0533 66.367 80.1109 68 76 68C71.8891 68 67.9467 66.367 65.0398 63.4602C62.133 60.5533 60.5 56.6109 60.5 52.5C60.5 48.3891 62.133 44.4467 65.0398 41.5398C67.9467 38.633 71.8891 37 76 37ZM76 43.25C73.5467 43.25 71.194 44.2246 69.4593 45.9593C67.7246 47.694 66.75 50.0467 66.75 52.5C66.75 54.9533 67.7246 57.306 69.4593 59.0407C71.194 60.7754 73.5467 61.75 76 61.75C78.4533 61.75 80.806 60.7754 82.5407 59.0407C84.2754 57.306 85.25 54.9533 85.25 52.5C85.25 50.0467 84.2754 47.694 82.5407 45.9593C80.806 44.2246 78.4533 43.25 76 43.25ZM76 74.125C81.3828 74.125 89.5066 75.4734 96.2589 78.1734C99.6343 79.523 102.604 81.1858 104.714 83.135C106.817 85.0775 108 87.2378 108 89.625V101H44V89.625C44 87.2378 45.1833 85.0775 47.286 83.135C49.3959 81.1858 52.3657 79.523 55.7411 78.1734C62.4934 75.4734 70.6172 74.125 76 74.125Z"
        fill="white" stroke="#317BE1" stroke-width="2" />
    <defs>
        <filter id="filter0_d" x="0" y="0" width="150" height="150" filterUnits="userSpaceOnUse"
            color-interpolation-filters="sRGB">
            <feBlend mode="normal" in="SourceGraphic" in2="effect1_dropShadow" result="shape" />
        </filter>
    </defs>
</svg>
