<svg width="24" height="23" viewBox="0 0 24 23" fill="none" xmlns="http://www.w3.org/2000/svg">
<path d="M2.4 13.3146L13.2 13.3158C13.8055 13.3156 14.3887 13.5463 14.8327 13.9616C15.2766 14.3769 15.5486 14.9462 15.594 15.5553L15.6 15.7368V17.5526C15.5988 21.7895 11.1408 23 7.8 23C4.5336 23 0.198 21.8427 0.00600014 17.8311L0 17.5526V15.7356C0 14.4597 0.9792 13.4138 2.22 13.3206L2.4 13.3158V13.3146ZM15.864 13.3158H21.6C22.8648 13.3158 23.9016 14.3036 23.9928 15.5553L24 15.7368V16.9474C23.9988 20.654 20.5704 21.7895 18 21.7895C17.1294 21.7915 16.2635 21.6601 15.432 21.3997C15.8352 20.9324 16.1604 20.3986 16.3944 19.7933C16.9215 19.9121 17.4599 19.9726 18 19.9737L18.3204 19.9664C19.5024 19.9144 22.0236 19.527 22.1916 17.1955L22.2 16.9474V15.7368C22.1998 15.5952 22.1505 15.4582 22.0607 15.3494C21.9708 15.2406 21.846 15.167 21.708 15.1413L21.6 15.1316H16.7388C16.6396 14.539 16.394 13.9811 16.0248 13.5095L15.864 13.3158H21.6H15.864ZM2.4 15.1304L2.28 15.1425C2.16483 15.1667 2.059 15.2238 1.9752 15.3071C1.89262 15.3911 1.83593 15.4975 1.812 15.6134L1.8 15.7356V17.5526C1.8 18.7741 2.34 19.6372 3.5004 20.2666C4.4916 20.8053 5.904 21.1309 7.4196 21.1782L7.8 21.1842L8.1804 21.1782C9.696 21.1309 11.1072 20.8053 12.0996 20.2666C13.1868 19.6759 13.7304 18.8806 13.794 17.7766L13.8 17.5514V15.7368C13.7998 15.5952 13.7505 15.4582 13.6607 15.3494C13.5708 15.2406 13.446 15.167 13.308 15.1413L13.2 15.1316L2.4 15.1304ZM7.8 0C9.23217 0 10.6057 0.573917 11.6184 1.5955C12.6311 2.61708 13.2 4.00264 13.2 5.44737C13.2 6.8921 12.6311 8.27766 11.6184 9.29924C10.6057 10.3208 9.23217 10.8947 7.8 10.8947C6.36783 10.8947 4.99432 10.3208 3.98162 9.29924C2.96893 8.27766 2.4 6.8921 2.4 5.44737C2.4 4.00264 2.96893 2.61708 3.98162 1.5955C4.99432 0.573917 6.36783 0 7.8 0ZM18.6 2.42105C19.7139 2.42105 20.7822 2.86743 21.5699 3.662C22.3575 4.45656 22.8 5.53421 22.8 6.6579C22.8 7.78158 22.3575 8.85923 21.5699 9.65379C20.7822 10.4484 19.7139 10.8947 18.6 10.8947C17.4861 10.8947 16.4178 10.4484 15.6302 9.65379C14.8425 8.85923 14.4 7.78158 14.4 6.6579C14.4 5.53421 14.8425 4.45656 15.6302 3.662C16.4178 2.86743 17.4861 2.42105 18.6 2.42105ZM7.8 1.81579C5.8152 1.81579 4.2 3.44516 4.2 5.44737C4.2 7.44958 5.8152 9.07895 7.8 9.07895C9.7848 9.07895 11.4 7.44958 11.4 5.44737C11.4 3.44516 9.7848 1.81579 7.8 1.81579ZM18.6 4.23684C17.2764 4.23684 16.2 5.32268 16.2 6.6579C16.2 7.99311 17.2764 9.07895 18.6 9.07895C19.9236 9.07895 21 7.99311 21 6.6579C21 5.32268 19.9236 4.23684 18.6 4.23684Z" fill="black"/>
</svg>
