<svg width="22" height="20" viewBox="0 0 22 20" fill="none" xmlns="http://www.w3.org/2000/svg">
<path d="M0 17.6H19.8V19.8H0V17.6ZM19.8 0H2.2V11C2.2 13.431 4.169 15.4 6.6 15.4H13.2C15.631 15.4 17.6 13.431 17.6 11V7.7H19.8C21.021 7.7 22 6.721 22 5.5V2.2C22 0.979 21.021 0 19.8 0ZM15.4 11C15.4 12.21 14.41 13.2 13.2 13.2H6.6C5.39 13.2 4.4 12.21 4.4 11V2.2H7.7V3.74L5.709 5.335C5.577 5.434 5.5 5.599 5.5 5.764V10.45C5.5 10.758 5.742 11 6.05 11H10.45C10.758 11 11 10.758 11 10.45V5.764C11 5.599 10.923 5.434 10.791 5.335L8.8 3.74V2.2H15.4V11ZM8.25 4.708L9.9 6.028V9.9H6.6V6.028L8.25 4.708ZM19.8 5.5H17.6V2.2H19.8V5.5Z" fill="black"/>
</svg>
